<svg width="21" height="19" viewBox="0 0 21 19" fill="none" xmlns="http://www.w3.org/2000/svg">
<path d="M6 6.5H14M6 10H14M2 14.5H7.72288C7.89527 14.5 8.05551 14.5888 8.14688 14.735L10.0275 17.744C10.2344 18.0751 10.7241 18.0518 10.8987 17.7026L12.3618 14.7764C12.4465 14.607 12.6196 14.5 12.809 14.5H18.5C19.0523 14.5 19.5 14.0523 19.5 13.5V2C19.5 1.44772 19.0523 1 18.5 1H2C1.44772 1 1 1.44772 1 2V13.5C1 14.0523 1.44772 14.5 2 14.5Z" stroke="#828282" stroke-width="2" stroke-linecap="round"/>
</svg>
