<svg width="33" height="33" viewBox="0 0 33 33" fill="none" xmlns="http://www.w3.org/2000/svg">
<g filter="url(#filter0_d_6_191)">
<path d="M28 13L23.9867 2.29775C23.6939 1.51715 22.9477 1 22.114 1H10C9.11111 1 8.32889 1.58667 8.08 2.44L5 13M28 13V21.5C28 22.6046 27.1046 23.5 26 23.5H7C5.89543 23.5 5 22.6046 5 21.5V13M28 13H20V16C20 17.1046 19.1046 18 18 18H14C12.8954 18 12 17.1046 12 16V13H5M11 6H20M12.5 10.5H19" stroke="#828282" stroke-width="2" shape-rendering="crispEdges"/>
</g>
<defs>
<filter id="filter0_d_6_191" x="0" y="0" width="33" height="32.5" filterUnits="userSpaceOnUse" color-interpolation-filters="sRGB">
<feFlood flood-opacity="0" result="BackgroundImageFix"/>
<feColorMatrix in="SourceAlpha" type="matrix" values="0 0 0 0 0 0 0 0 0 0 0 0 0 0 0 0 0 0 127 0" result="hardAlpha"/>
<feOffset dy="4"/>
<feGaussianBlur stdDeviation="2"/>
<feComposite in2="hardAlpha" operator="out"/>
<feColorMatrix type="matrix" values="0 0 0 0 0 0 0 0 0 0 0 0 0 0 0 0 0 0 0.25 0"/>
<feBlend mode="normal" in2="BackgroundImageFix" result="effect1_dropShadow_6_191"/>
<feBlend mode="normal" in="SourceGraphic" in2="effect1_dropShadow_6_191" result="shape"/>
</filter>
</defs>
</svg>
