<svg width="26" height="26" viewBox="0 0 26 26" fill="none" xmlns="http://www.w3.org/2000/svg">
<path fill-rule="evenodd" clip-rule="evenodd" d="M23.8986 14.5H22H19.8389C19.2577 17.1619 17.1619 19.2577 14.5 19.8389V23.8986C19.3751 23.2339 23.2339 19.3751 23.8986 14.5ZM12.5 23.9888V19.9824C9.37315 19.7617 6.81331 17.4874 6.16109 14.5H2.10142C2.81099 19.704 7.16019 23.75 12.5 23.9888ZM23.9888 12.5H22H19.9824C19.7617 9.37315 17.4874 6.81331 14.5 6.16109V2.10142C19.704 2.81099 23.75 7.16019 23.9888 12.5ZM12.5 2.01116C6.82267 2.26514 2.26514 6.82267 2.01116 12.5H6.01758C6.2623 9.03251 9.03251 6.2623 12.5 6.01758V2.01116ZM13 26C20.1797 26 26 20.1797 26 13C26 5.8203 20.1797 0 13 0C5.8203 0 0 5.8203 0 13C0 20.1797 5.8203 26 13 26ZM13 18C15.7614 18 18 15.7614 18 13C18 10.2386 15.7614 8 13 8C10.2386 8 8 10.2386 8 13C8 15.7614 10.2386 18 13 18Z" fill="#828282"/>
</svg>
