<svg width="27" height="25" viewBox="0 0 27 25" fill="none" xmlns="http://www.w3.org/2000/svg">
<path d="M18.3913 2C18.9436 2 19.3913 1.55228 19.3913 1C19.3913 0.447715 18.9436 0 18.3913 0V2ZM10.7826 11.9524H11.7826V10.9524H10.7826V11.9524ZM18.3913 0H3V2H18.3913V0ZM3 25H24V23H3V25ZM27 22V9.02381H25V22H27ZM0 3V7.02381H2V3H0ZM24 6.02381H1V8.02381H24V6.02381ZM0 7.02381V11.9524H2V7.02381H0ZM1 12.9524H10.7826V10.9524H1V12.9524ZM9.78261 11.9524V15.4286H11.7826V11.9524H9.78261ZM0 11.9524V17.4286H2V11.9524H0ZM0 17.4286V22H2V17.4286H0ZM8.78261 16.4286H1V18.4286H8.78261V16.4286ZM27 9.02381C27 7.36695 25.6569 6.02381 24 6.02381V8.02381C24.5523 8.02381 25 8.47152 25 9.02381H27ZM9.78261 15.4286C9.78261 15.9809 9.33489 16.4286 8.78261 16.4286V18.4286C10.4395 18.4286 11.7826 17.0854 11.7826 15.4286H9.78261ZM24 25C25.6569 25 27 23.6569 27 22H25C25 22.5523 24.5523 23 24 23V25ZM3 23C2.44772 23 2 22.5523 2 22H0C0 23.6569 1.34315 25 3 25V23ZM3 0C1.34315 0 0 1.34314 0 3H2C2 2.44772 2.44772 2 3 2V0Z" fill="white"/>
</svg>
