<svg width="27" height="20" viewBox="0 0 27 20" fill="none" xmlns="http://www.w3.org/2000/svg">
<path d="M17 2C17.5523 2 18 1.55228 18 1C18 0.447715 17.5523 0 17 0V2ZM24.5 10C24.5 9.44771 24.0523 9 23.5 9C22.9477 9 22.5 9.44771 22.5 10H24.5ZM15.7071 4.29289C15.3166 3.90237 14.6834 3.90237 14.2929 4.29289C13.9024 4.68342 13.9024 5.31658 14.2929 5.70711L15.7071 4.29289ZM18.5 8.5L17.7929 9.20711L18.5 9.91421L19.2071 9.20711L18.5 8.5ZM26.7071 1.70711C27.0976 1.31658 27.0976 0.683417 26.7071 0.292893C26.3166 -0.0976311 25.6834 -0.0976311 25.2929 0.292893L26.7071 1.70711ZM9.53417 11.0124L9.19243 11.9522L9.53417 11.0124ZM9.46583 11.0124L9.80757 11.9522L9.46583 11.0124ZM14.4666 12.806L14.1248 13.7458L14.4666 12.806ZM4.53344 12.806L4.87519 13.7458L4.53344 12.806ZM17 0H3V2H17V0ZM0 3V17H2V3H0ZM3 20H21.5V18H3V20ZM24.5 17V10H22.5V17H24.5ZM14.2929 5.70711L17.7929 9.20711L19.2071 7.79289L15.7071 4.29289L14.2929 5.70711ZM19.2071 9.20711L26.7071 1.70711L25.2929 0.292893L17.7929 7.79289L19.2071 9.20711ZM4.56762 14H14.4324V12H4.56762V14ZM14.8083 11.8662L9.87592 10.0726L9.19243 11.9522L14.1248 13.7458L14.8083 11.8662ZM9.12408 10.0726L4.1917 11.8662L4.87519 13.7458L9.80757 11.9522L9.12408 10.0726ZM9.5 7.5H7.5C7.5 8.60457 8.39543 9.5 9.5 9.5V7.5ZM9.87592 10.0726C9.63308 9.98433 9.36691 9.98433 9.12408 10.0726L9.80757 11.9522C9.60889 12.0245 9.39111 12.0245 9.19243 11.9522L9.87592 10.0726ZM14.4324 14C15.6632 14 15.9651 12.2869 14.8083 11.8662L14.1248 13.7458C13.1784 13.4017 13.4253 12 14.4324 12V14ZM4.56762 12C5.57466 12 5.82165 13.4016 4.87519 13.7458L4.1917 11.8662C3.03492 12.2869 3.33678 14 4.56762 14V12ZM9.5 5.5C8.39543 5.5 7.5 6.39543 7.5 7.5H9.5V5.5ZM21.5 20C23.1569 20 24.5 18.6569 24.5 17H22.5C22.5 17.5523 22.0523 18 21.5 18V20ZM11.5 7.5C11.5 6.39543 10.6046 5.5 9.5 5.5V7.5H11.5ZM0 17C0 18.6569 1.34315 20 3 20V18C2.44772 18 2 17.5523 2 17H0ZM9.5 9.5C10.6046 9.5 11.5 8.60457 11.5 7.5H9.5V9.5ZM3 0C1.34315 0 0 1.34315 0 3H2C2 2.44772 2.44772 2 3 2V0Z" fill="#828282"/>
</svg>
