<svg width="24" height="24" viewBox="0 0 24 24" fill="none" xmlns="http://www.w3.org/2000/svg">
<path fill-rule="evenodd" clip-rule="evenodd" d="M12 22C14.2091 22 16 20.2091 16 18C16 15.7909 14.2091 14 12 14C9.79086 14 8 15.7909 8 18C8 20.2091 9.79086 22 12 22ZM22 12C22 15.4784 20.224 18.5421 17.5293 20.3336C17.8324 19.6163 18 18.8277 18 18C18 15.4354 16.3909 13.2466 14.1273 12.388C15.2523 11.6802 16 10.4274 16 9C16 6.79086 14.2091 5 12 5C9.79086 5 8 6.79086 8 9C8 10.4274 8.74765 11.6802 9.87271 12.388C7.60905 13.2466 6 15.4354 6 18C6 18.8277 6.1676 19.6163 6.47071 20.3336C3.77601 18.5421 2 15.4784 2 12C2 6.47715 6.47715 2 12 2C17.5228 2 22 6.47715 22 12ZM12 24C18.6274 24 24 18.6274 24 12C24 5.37258 18.6274 0 12 0C5.37258 0 0 5.37258 0 12C0 18.6274 5.37258 24 12 24ZM12 11C13.1046 11 14 10.1046 14 9C14 7.89543 13.1046 7 12 7C10.8954 7 10 7.89543 10 9C10 10.1046 10.8954 11 12 11Z" fill="#DAA27D"/>
</svg>
